<?xml version="1.0" standalone="no"?>
<!DOCTYPE svg PUBLIC "-//W3C//DTD SVG 20010904//EN"
 "http://www.w3.org/TR/2001/REC-SVG-20010904/DTD/svg10.dtd">
<svg version="1.0" xmlns="http://www.w3.org/2000/svg"
 width="700.000000pt" height="700.000000pt" viewBox="0 0 700.000000 700.000000"
 preserveAspectRatio="xMidYMid meet">
<metadata>
Created by potrace 1.14, written by Peter Selinger 2001-2017
</metadata>
<g transform="translate(0.000000,700.000000) scale(0.100000,-0.100000)"
fill="#000000" stroke="none">
<path d="M3397 6874 c-1 -1 -49 -5 -107 -8 -115 -7 -166 -12 -220 -21 -19 -3
-53 -8 -75 -11 -134 -16 -445 -93 -595 -146 -589 -209 -1071 -540 -1495 -1028
-63 -73 -223 -293 -284 -392 -188 -300 -341 -668 -425 -1018 -25 -106 -29
-125 -43 -209 -4 -25 -8 -48 -8 -51 -1 -5 -11 -79 -21 -155 -23 -177 -23 -579
0 -745 2 -14 6 -50 10 -80 43 -344 151 -704 313 -1040 204 -423 505 -810 873
-1121 477 -403 1070 -670 1700 -765 25 -3 52 -8 60 -9 8 -2 53 -6 100 -10 47
-5 99 -9 115 -11 46 -5 404 -4 455 1 138 12 187 18 205 21 11 2 40 6 65 9 25
3 68 10 95 15 28 5 65 12 83 15 47 8 287 70 357 93 338 111 650 267 945 475
63 44 117 83 120 86 3 3 46 40 95 81 303 251 585 593 787 955 193 344 346 796
393 1160 4 28 9 61 11 75 19 120 27 589 11 742 -8 85 -30 233 -47 318 -6 30
-13 66 -15 80 -11 60 -58 234 -91 335 -132 403 -326 759 -595 1095 -99 124
-321 354 -420 435 -34 28 -67 55 -73 60 -31 29 -190 148 -256 192 -327 217
-669 370 -1045 468 -112 29 -263 61 -330 70 -11 1 -47 6 -80 10 -33 3 -71 8
-84 10 -73 12 -474 28 -484 19z m302 -239 c142 -7 310 -26 361 -40 8 -2 34 -7
57 -10 23 -3 95 -19 161 -35 1081 -264 1954 -1089 2280 -2155 49 -160 83 -318
116 -535 27 -174 28 -670 1 -793 -2 -12 -6 -40 -9 -62 -3 -22 -10 -65 -16 -95
-6 -30 -13 -68 -16 -85 -12 -70 -68 -278 -103 -385 -141 -423 -397 -845 -711
-1173 l-96 -100 -16 24 c-8 13 -84 114 -169 225 -85 110 -208 272 -274 359
-66 87 -124 163 -130 169 -5 6 -50 65 -99 130 -85 112 -89 120 -75 141 8 13
50 73 94 134 44 62 89 127 100 145 163 273 246 450 332 701 64 190 132 485
148 650 4 39 9 79 12 90 2 11 6 109 8 217 l4 197 88 75 c146 122 270 257 396
433 l38 52 -88 -35 c-48 -19 -126 -46 -173 -60 -86 -26 -321 -76 -328 -69 -2
2 9 12 25 22 73 47 198 170 263 257 48 65 120 201 144 272 l15 45 -43 -25
c-161 -94 -410 -193 -568 -225 l-57 -12 -58 56 c-191 185 -456 287 -731 280
-144 -3 -183 -9 -297 -47 -166 -56 -286 -129 -411 -253 -144 -142 -266 -363
-298 -540 -3 -16 -8 -43 -12 -60 -12 -55 -11 -289 0 -357 l12 -68 -38 0 c-36
0 -40 4 -136 128 -95 123 -355 463 -643 842 -77 102 -146 192 -153 201 -7 9
-75 97 -150 195 -74 98 -177 233 -227 299 -51 66 -140 183 -198 260 -58 77
-114 148 -123 159 -21 24 -23 22 112 94 150 80 312 149 485 207 222 74 373
108 670 150 17 2 91 7 165 11 74 3 136 7 137 8 2 2 81 -1 222 -9z m-2019 -642
c14 -20 30 -41 35 -47 6 -6 82 -105 170 -221 87 -115 161 -212 164 -215 3 -3
76 -97 161 -210 84 -113 159 -210 165 -217 5 -6 69 -89 140 -183 131 -173 435
-572 458 -600 43 -54 98 -132 95 -136 -6 -6 -170 40 -286 80 -498 171 -951
481 -1300 889 l-76 88 -37 -78 c-117 -248 -135 -547 -48 -813 20 -61 67 -164
99 -220 58 -99 200 -257 272 -304 15 -10 26 -21 23 -25 -15 -25 -277 39 -388
94 -39 19 -71 35 -72 35 0 0 0 -19 2 -42 4 -84 14 -164 24 -203 6 -22 13 -51
16 -65 2 -14 20 -65 40 -114 99 -248 282 -450 513 -564 83 -41 198 -82 228
-82 25 0 7 -11 -35 -21 -87 -21 -219 -27 -340 -16 -40 4 -73 3 -73 -2 0 -29
88 -204 143 -286 56 -82 187 -213 272 -270 150 -102 332 -167 496 -179 28 -2
52 -6 55 -9 7 -7 -169 -129 -270 -187 -185 -106 -455 -206 -636 -235 -19 -3
-60 -10 -90 -15 -120 -20 -331 -27 -471 -15 -86 8 -87 9 54 -74 387 -227 816
-362 1262 -397 155 -12 439 -7 570 11 98 13 193 27 210 30 550 101 1054 355
1443 726 40 39 76 68 81 65 4 -3 67 -83 139 -178 73 -95 180 -236 238 -313 59
-77 157 -205 217 -285 61 -80 121 -158 134 -173 13 -16 23 -33 23 -38 0 -14
-176 -141 -336 -241 -125 -79 -362 -193 -544 -261 -185 -69 -477 -144 -635
-162 -27 -3 -59 -8 -70 -10 -95 -19 -519 -27 -680 -12 -86 7 -158 16 -190 21
-11 2 -47 9 -80 15 -33 6 -75 13 -93 16 -100 17 -355 92 -502 149 -134 51
-393 176 -452 217 -14 11 -29 19 -32 19 -4 0 -19 8 -34 18 -15 11 -63 43 -107
72 -582 388 -1022 967 -1245 1640 -56 168 -91 309 -120 475 -37 223 -53 549
-36 750 13 146 18 200 21 205 2 3 7 33 10 65 4 33 9 62 10 65 2 3 6 26 10 50
14 92 100 403 134 485 5 11 26 63 46 115 178 448 502 892 891 1221 92 78 172
139 183 139 3 0 17 -17 31 -37z"/>
</g>
</svg>
